<?xml version="1.0" standalone="no"?><!DOCTYPE svg PUBLIC "-//W3C//DTD SVG 1.1//EN" "http://www.w3.org/Graphics/SVG/1.1/DTD/svg11.dtd"><svg t="1573004950600" class="icon" viewBox="0 0 1024 1024" version="1.1" xmlns="http://www.w3.org/2000/svg" p-id="2633" width="48" height="48" xmlns:xlink="http://www.w3.org/1999/xlink"><defs><style type="text/css"></style></defs><path d="M694.854322 0.004389a260.533741 260.533741 0 0 1 80.456798 14.628508A222.938473 222.938473 0 0 1 914.281953 226.746274a226.741885 226.741885 0 0 1-65.82829 160.913596L438.855419 804.572369a151.331923 151.331923 0 0 1-43.885526 29.257017 108.909248 108.909248 0 0 1-51.199781 7.314255 124.342324 124.342324 0 0 1-51.199781-7.314255A73.142544 73.142544 0 0 1 255.99906 804.572369a151.331923 151.331923 0 0 1-29.257018-43.885526 124.927465 124.927465 0 0 1-7.314254-51.199781A138.970833 138.970833 0 0 1 255.99906 614.401755l373.026972-387.655481a47.908366 47.908366 0 0 1 80.456798 29.257017c-7.314254 14.628509-7.314254 21.942763-14.628508 36.571272L314.513095 672.91579a56.027188 56.027188 0 0 0-14.628509 36.571272 47.250083 47.250083 0 0 0 43.885526 43.885526 37.595267 37.595267 0 0 0 29.257017-14.628508l409.598245-416.912499a121.05091 121.05091 0 0 0 36.571272-95.085307 154.40391 154.40391 0 0 0-36.571272-95.085307A104.37441 104.37441 0 0 0 694.854322 87.775441a117.978923 117.978923 0 0 0-95.085307 43.885526L190.17077 548.573466a261.484594 261.484594 0 0 0-51.19978 73.142544 223.084758 223.084758 0 0 0 0 168.22785 263.825155 263.825155 0 0 0 51.19978 73.142544 210.504241 210.504241 0 0 0 153.599342 65.828289 199.094004 199.094004 0 0 0 153.599342-65.828289L914.281953 453.488159c7.314254-14.628509 14.628509-14.628509 29.257017-14.628508a37.595267 37.595267 0 0 1 29.257018 14.628508 36.571272 36.571272 0 0 1 0 58.514035l-409.598245 416.912499a521.433194 521.433194 0 0 1-102.399561 73.142544 323.070615 323.070615 0 0 1-234.05614 0 242.906388 242.906388 0 0 1-102.399561-73.142544 308.149537 308.149537 0 0 1-65.828289-102.399561A333.164286 333.164286 0 0 1 36.571429 709.487062 370.247556 370.247556 0 0 1 58.514192 585.144738a307.198683 307.198683 0 0 1 65.828289-102.399561L533.940726 65.832678A226.083602 226.083602 0 0 1 694.854322 0.004389z m0 0" p-id="2634" fill="#dbdbdb"></path></svg>