<svg t="1617786749210" class="icon" viewBox="0 0 1024 1024" version="1.1" xmlns="http://www.w3.org/2000/svg" p-id="3180" width="200" height="200"><path d="M903.5 693.7V105.9c0-23.3-18.7-42-42-42H287.7c-92.7 0-167.9 75.2-167.9 167.9v559.8c0 92.7 75.2 167.9 167.9 167.9h573.8c23.3 0 42-18.7 42-42v-28c0-13.1-6.1-25-15.6-32.7-7.3-26.9-7.3-103.7 0-130.7 9.5-7.4 15.6-19.3 15.6-32.4zM343.7 298.3c0-5.8 4.7-10.5 10.5-10.5h370.9c5.8 0 10.5 4.7 10.5 10.5v35c0 5.8-4.7 10.5-10.5 10.5H354.2c-5.8 0-10.5-4.7-10.5-10.5v-35z m0 111.9c0-5.8 4.7-10.5 10.5-10.5h370.9c5.8 0 10.5 4.7 10.5 10.5v35c0 5.8-4.7 10.5-10.5 10.5H354.2c-5.8 0-10.5-4.7-10.5-10.5v-35zM787 847.6H287.7c-31 0-56-25-56-56 0-30.8 25.2-56 56-56H787c-3.3 30-3.3 82.1 0 112z" p-id="3181"></path></svg>