<svg class="icon" viewBox="0 0 1024 1024" xmlns="http://www.w3.org/2000/svg" width="32" height="32"><defs><style/></defs><path d="M727.36 805.547H296.64c-21.76 0-39.467 19.093-39.467 44.266s17.707 44.374 39.467 44.374h430.72c21.76 0 39.467-19.2 39.467-44.374-.107-25.173-17.707-44.266-39.467-44.266zM916.267 304.32c-3.307-3.413-6.934-6.613-11.2-9.493-14.614-10.454-32.427-16.534-51.627-16.534-50.027 0-90.56 41.6-90.56 92.8 0 30.934 14.827 58.24 37.547 75.094-16 18.88-74.454 85.226-102.187 77.12-42.88-12.374-52.16-194.987-52.8-209.174 43.093-7.146 76.16-45.333 76.16-91.52 0-51.2-40.533-92.8-90.56-92.8s-90.56 41.494-90.56 92.8c0 35.52 19.413 66.24 47.893 81.92-10.133 25.814-50.453 124.374-77.973 124.054-28.48-.32-68.8-102.827-77.333-125.547 27.093-16.107 45.333-45.973 45.333-80.32 0-51.2-40.533-92.8-90.56-92.8s-90.56 41.493-90.56 92.8c0 40.747 25.707 75.307 61.333 87.787 5.12 2.133 10.774 3.626 17.067 4.266 0 0-17.707 191.147-58.347 201.174-34.773 8.64-80.96-50.134-94.72-68.907 23.254-16.853 38.4-44.48 38.4-75.84 0-51.2-40.533-92.8-90.56-92.8-7.573 0-14.933 1.067-21.973 2.88-13.333 1.387-43.52 8.747-57.92 46.293-6.827 13.014-10.667 27.84-10.667 43.627 0 21.227 7.04 40.64 18.667 56.32 6.08 8.96 14.4 17.387 26.027 23.573C138.027 459.2 153.707 464 170.453 464c4.694 0 9.28-.533 13.76-1.173 3.307 25.386 41.707 273.6 95.04 276.373.214-.107 402.88 0 465.28 0 58.027 0 98.88-268.16 98.88-268.16l.96-7.467c2.987.32 5.974.427 9.067.427 16.32 0 31.573-4.48 44.8-12.16 15.787-5.44 30.4-16.96 36.693-40.427 5.76-12.16 9.067-25.706 9.067-40.213 0-26.347-10.667-50.027-27.733-66.88zm0 0"/></svg>