<svg class="icon" viewBox="0 0 1024 1024" xmlns="http://www.w3.org/2000/svg" width="32" height="32"><defs><style/></defs><path d="M562.805 80.698a72.135 72.135 0 0 0-96.93 0L73.925 452.87a36.157 36.157 0 0 0 48.42 53.707l6.233-5.917V889.1a72.315 72.315 0 0 0 72.315 72.405h210.442v-217.71a50.917 50.917 0 0 1 50.94-50.985h99.023a50.917 50.917 0 0 1 50.94 50.985v217.71h215.438a72.315 72.315 0 0 0 72.337-72.405V505.407c16.065 14.535 38.858 13.433 52.223-1.462a36.157 36.157 0 0 0-2.61-51.075L562.806 80.72z"/></svg>