<svg class="icon" viewBox="0 0 1024 1024" xmlns="http://www.w3.org/2000/svg" width="32" height="32"><defs><style/></defs><path d="M832 736L582.4 889.6c-19.2 12.8-38.4 0-38.4-25.6V505.6c0-6.4 6.4-19.2 12.8-25.6l249.6-153.6c19.2-12.8 38.4 0 38.4 25.6v364.8c0 6.4-6.4 19.2-12.8 19.2zM192 736l249.6 153.6c19.2 12.8 38.4 0 38.4-25.6V505.6c0-6.4-6.4-19.2-12.8-25.6L217.6 326.4c-12.8-6.4-38.4 6.4-38.4 25.6v364.8c0 6.4 6.4 19.2 12.8 19.2zM505.6 128l-288 108.8c-12.8 6.4-12.8 25.6 0 32l288 179.2h12.8l294.4-179.2c12.8-6.4 12.8-25.6 0-32L518.4 128h-12.8z"/></svg>