<svg class="icon" viewBox="0 0 1024 1024" xmlns="http://www.w3.org/2000/svg" width="32" height="32"><defs><style/></defs><path d="M458.121 1015.222c-26.415 0-52.83-10.16-71.118-28.447L41.573 641.344c-18.288-18.287-30.48-44.703-30.48-71.118s10.16-52.83 30.48-71.118L472.344 66.304C527.207 11.44 899.053-23.102 976.267 52.08c60.958 60.958 36.575 451.092-14.224 501.89L531.271 986.775c-20.32 18.287-44.703 28.447-73.15 28.447zm-42.67-58.927c12.19 12.192 28.446 18.288 44.702 18.288 16.255 0 32.511-6.096 42.67-18.288l430.773-430.772c34.543-34.543 58.926-400.293 14.224-444.996-58.927-58.926-406.39-24.383-444.996 14.224L70.02 527.555c-12.192 12.192-18.288 26.415-18.288 42.671s6.096 32.511 18.288 42.67l345.43 343.4z"/><path d="M746.657 403.607c-67.054 0-121.917-54.863-121.917-121.917s54.863-121.917 121.917-121.917 121.917 54.863 121.917 121.917-54.863 121.917-121.917 121.917zm0-203.195c-44.703 0-81.278 36.575-81.278 81.278s36.575 81.278 81.278 81.278 81.278-36.575 81.278-81.278-36.575-81.278-81.278-81.278zm-142.236 335.27l-89.406 24.384c-16.255 4.064-30.479 8.128-46.734 14.224 6.096-18.288 18.287-62.99 38.607-136.14l-30.48-30.48-34.543 148.332-46.734-46.734-20.32 20.32 54.863 54.862-28.447 28.447-54.863-54.863-20.32 20.32 54.863 54.862-40.639 40.64 28.447 26.414 40.64-40.638 52.83 52.83 20.32-20.32-52.831-52.83 28.447-28.447 52.83 52.83 20.32-20.319-44.703-44.703 150.364-34.543-32.511-28.447z"/></svg>