<?xml version="1.0" standalone="no"?><!DOCTYPE svg PUBLIC "-//W3C//DTD SVG 1.1//EN" "http://www.w3.org/Graphics/SVG/1.1/DTD/svg11.dtd"><svg t="1578569420672" class="icon" viewBox="0 0 1024 1024" version="1.1" xmlns="http://www.w3.org/2000/svg" p-id="6832" width="48" height="48" xmlns:xlink="http://www.w3.org/1999/xlink"><defs><style type="text/css"></style></defs><path d="M175.744 814.336l263.488-263.616a23.936 23.936 0 0 1 33.6 0.128c9.024 9.088 9.344 24.384 0.128 33.664l-263.616 263.68h304.96c12.8 0 23.808 10.688 23.808 23.872 0 12.8-10.688 23.872-23.808 23.872H153.6a24.064 24.064 0 0 1-25.6-23.68l-0.064-362.24c0-12.864 10.688-23.872 23.872-23.872 12.8 0 23.872 10.688 23.872 23.808v304.384z m672.512-604.672l-263.488 263.68a23.936 23.936 0 0 1-33.6-0.192 24.064 24.064 0 0 1-0.128-33.6l263.616-263.68H509.696a24 24 0 0 1-23.808-23.936c0-12.8 10.688-23.872 23.808-23.872H870.4L872.128 128c12.8 0 23.872 10.688 23.872 23.808v362.24c0 12.8-10.688 23.808-23.872 23.808a24.064 24.064 0 0 1-23.872-23.808V209.664z" p-id="6833" fill="#707070"></path></svg>