<?xml version="1.0" standalone="no"?><!DOCTYPE svg PUBLIC "-//W3C//DTD SVG 1.1//EN" "http://www.w3.org/Graphics/SVG/1.1/DTD/svg11.dtd"><svg t="1578569446439" class="icon" viewBox="0 0 1024 1024" version="1.1" xmlns="http://www.w3.org/2000/svg" p-id="7838" width="48" height="48" xmlns:xlink="http://www.w3.org/1999/xlink"><defs><style type="text/css"></style></defs><path d="M436.16 625.664l-272.256 263.68a19.52 19.52 0 0 1-29.76-0.192 26.24 26.24 0 0 1-0.128-33.6l275.008-263.68H244.224c-11.392 0-21.12-10.752-21.12-23.936 0-12.8 9.472-23.872 21.12-23.872h214.144a18.56 18.56 0 0 1 1.6-0.064c11.328 0 21.12 10.688 21.12 23.808v221.568c0 12.8-9.408 23.68-21.12 23.68-11.328 0-23.808-10.56-23.808-23.68V625.664z m151.68-227.2l272.256-263.68a19.52 19.52 0 0 1 29.76 0.192 26.24 26.24 0 0 1 0.128 33.6l-275.008 263.68h164.8c11.392 0 21.12 10.752 21.12 23.936 0 12.8-9.472 23.872-21.12 23.872H565.632a18.56 18.56 0 0 1-1.6 0.064c-11.328 0-21.12-10.688-21.12-23.808V234.752c0-12.8 9.408-23.68 21.12-23.68 11.328 0 23.808 10.56 23.808 23.68v163.712z" p-id="7839" fill="#707070"></path></svg>